# xmcd
#
# Track frame offsets:
#	150
#	21316
#	36008
#	52994
#	69412
#	87934
#	107160
#	116481
#	132052
#	148947
#	164441
#	177968
#	188770
#	204384
#
# Disc length: 3065 seconds
# Revision: 0
# Processed by: cddbd v1.5.2PL0 Copyright (c) Steve Scherf et al.
# Submitted via: dBpowerAMP V12.0
#
DISCID=c00bf70e
DTITLE=Rodney Rice - Empty Pockets and a Troubled Mind
DYEAR=2014
DGENRE=Country
TTITLE0=Short Walk to Hell
TTITLE1=Pretty As A Rose
TTITLE2=Get Back Home
TTITLE3=Break Your Heart
TTITLE4=Texas Moon
TTITLE5=Hills of Carolina
TTITLE6=Master Plan
TTITLE7=Let it Burn
TTITLE8=Forever and Ever
TTITLE9=One By One
TTITLE10=Hungover Game
TTITLE11=Screwtop Wine
TTITLE12='Til the Day You Die
TTITLE13=You Don't Know Me
EXTD=
EXTT0=
EXTT1=
EXTT2=
EXTT3=
EXTT4=
EXTT5=
EXTT6=
EXTT7=
EXTT8=
EXTT9=
EXTT10=
EXTT11=
EXTT12=
EXTT13=
PLAYORDER=
